<mxfile host="app.diagrams.net" modified="2024-02-07T08:48:33.414Z" agent="Mozilla/5.0 (Windows NT 10.0; Win64; x64) AppleWebKit/537.36 (KHTML, like Gecko) Chrome/120.0.0.0 Safari/537.36 Edg/120.0.0.0" etag="LvYxdqDnFtt-PDwtPmrm" version="23.1.1" type="github">
  <diagram name="Page-1" id="lq0IV_jrEb6xUG4t8S4w">
    <mxGraphModel dx="2431" dy="1316" grid="0" gridSize="10" guides="1" tooltips="1" connect="1" arrows="1" fold="1" page="1" pageScale="1" pageWidth="1169" pageHeight="827" math="0" shadow="0">
      <root>
        <mxCell id="0" />
        <mxCell id="1" parent="0" />
        <mxCell id="Jp-t8RC92nulNdhPLHjl-14" value="" style="rounded=0;whiteSpace=wrap;html=1;" parent="1" vertex="1">
          <mxGeometry x="160" y="120" width="200" height="160" as="geometry" />
        </mxCell>
        <mxCell id="Jp-t8RC92nulNdhPLHjl-1" value="Login Service" style="text;html=1;align=center;verticalAlign=middle;resizable=0;points=[];autosize=1;strokeColor=none;fillColor=none;fontSize=20;" parent="1" vertex="1">
          <mxGeometry x="50" y="45" width="140" height="40" as="geometry" />
        </mxCell>
        <mxCell id="Jp-t8RC92nulNdhPLHjl-12" style="edgeStyle=orthogonalEdgeStyle;rounded=0;orthogonalLoop=1;jettySize=auto;html=1;" parent="1" source="Jp-t8RC92nulNdhPLHjl-2" edge="1">
          <mxGeometry relative="1" as="geometry">
            <mxPoint x="230" y="195" as="targetPoint" />
          </mxGeometry>
        </mxCell>
        <mxCell id="Jp-t8RC92nulNdhPLHjl-2" value="" style="html=1;verticalLabelPosition=bottom;align=center;labelBackgroundColor=#ffffff;verticalAlign=top;strokeWidth=2;strokeColor=#0080F0;shadow=0;dashed=0;shape=mxgraph.ios7.icons.user;" parent="1" vertex="1">
          <mxGeometry x="100" y="180" width="30" height="30" as="geometry" />
        </mxCell>
        <mxCell id="Jp-t8RC92nulNdhPLHjl-3" value="" style="group" parent="1" vertex="1" connectable="0">
          <mxGeometry x="240" y="170" width="60" height="50" as="geometry" />
        </mxCell>
        <mxCell id="Jp-t8RC92nulNdhPLHjl-13" style="edgeStyle=orthogonalEdgeStyle;rounded=0;orthogonalLoop=1;jettySize=auto;html=1;" parent="Jp-t8RC92nulNdhPLHjl-3" source="Jp-t8RC92nulNdhPLHjl-4" edge="1">
          <mxGeometry relative="1" as="geometry">
            <mxPoint x="150" y="24.953617810760534" as="targetPoint" />
          </mxGeometry>
        </mxCell>
        <mxCell id="Jp-t8RC92nulNdhPLHjl-4" value="" style="shape=image;html=1;verticalAlign=top;verticalLabelPosition=bottom;labelBackgroundColor=#ffffff;imageAspect=0;aspect=fixed;image=https://cdn4.iconfinder.com/data/icons/internet-security-flat-2/32/Internet_Security_Browser_shield_website_web_safe-128.png;fontSize=10;" parent="Jp-t8RC92nulNdhPLHjl-3" vertex="1">
          <mxGeometry y="4.545454545454545" width="40.816326530612244" height="40.816326530612244" as="geometry" />
        </mxCell>
        <mxCell id="Jp-t8RC92nulNdhPLHjl-5" value="" style="shape=image;html=1;verticalAlign=top;verticalLabelPosition=bottom;labelBackgroundColor=#ffffff;imageAspect=0;aspect=fixed;image=https://cdn4.iconfinder.com/data/icons/internet-security-flat-2/32/Internet_Security_entrance_login_log_in_arrow-128.png;fontSize=10;" parent="Jp-t8RC92nulNdhPLHjl-3" vertex="1">
          <mxGeometry x="30" width="28.571428571428573" height="28.571428571428573" as="geometry" />
        </mxCell>
        <mxCell id="Jp-t8RC92nulNdhPLHjl-6" value="" style="sketch=0;html=1;aspect=fixed;strokeColor=none;shadow=0;align=center;verticalAlign=top;fillColor=#3B8DF1;shape=mxgraph.gcp2.website;fontSize=10;" parent="1" vertex="1">
          <mxGeometry x="400" y="175" width="41.23" height="40" as="geometry" />
        </mxCell>
        <mxCell id="Jp-t8RC92nulNdhPLHjl-8" value="SSO" style="text;html=1;align=center;verticalAlign=middle;resizable=0;points=[];autosize=1;strokeColor=none;fillColor=none;fontSize=10;" parent="1" vertex="1">
          <mxGeometry x="160" y="160" width="40" height="30" as="geometry" />
        </mxCell>
        <mxCell id="Jp-t8RC92nulNdhPLHjl-9" value="User" style="text;html=1;align=center;verticalAlign=middle;resizable=0;points=[];autosize=1;strokeColor=none;fillColor=none;fontSize=10;" parent="1" vertex="1">
          <mxGeometry x="95" y="140" width="40" height="20" as="geometry" />
        </mxCell>
        <mxCell id="Jp-t8RC92nulNdhPLHjl-10" value="Secure&amp;nbsp;&lt;br&gt;Conection" style="text;html=1;align=center;verticalAlign=middle;resizable=0;points=[];autosize=1;strokeColor=none;fillColor=none;fontSize=10;" parent="1" vertex="1">
          <mxGeometry x="230" y="130" width="60" height="30" as="geometry" />
        </mxCell>
        <mxCell id="Jp-t8RC92nulNdhPLHjl-11" value="Website&lt;br&gt;" style="text;html=1;align=center;verticalAlign=middle;resizable=0;points=[];autosize=1;strokeColor=none;fillColor=none;" parent="1" vertex="1">
          <mxGeometry x="390.61" y="140" width="60" height="20" as="geometry" />
        </mxCell>
        <mxCell id="Jp-t8RC92nulNdhPLHjl-15" value="SSO Login &lt;br&gt;Service" style="text;html=1;align=center;verticalAlign=middle;resizable=0;points=[];autosize=1;strokeColor=none;fillColor=none;" parent="1" vertex="1">
          <mxGeometry x="230" y="220" width="80" height="40" as="geometry" />
        </mxCell>
        <mxCell id="Jp-t8RC92nulNdhPLHjl-16" value="Session Service" style="text;html=1;align=center;verticalAlign=middle;resizable=0;points=[];autosize=1;strokeColor=none;fillColor=none;fontSize=20;" parent="1" vertex="1">
          <mxGeometry x="45" y="365" width="170" height="40" as="geometry" />
        </mxCell>
        <mxCell id="Jp-t8RC92nulNdhPLHjl-21" style="edgeStyle=orthogonalEdgeStyle;rounded=0;orthogonalLoop=1;jettySize=auto;html=1;" parent="1" source="Jp-t8RC92nulNdhPLHjl-17" edge="1">
          <mxGeometry relative="1" as="geometry">
            <mxPoint x="250" y="475" as="targetPoint" />
          </mxGeometry>
        </mxCell>
        <mxCell id="Jp-t8RC92nulNdhPLHjl-17" value="" style="html=1;verticalLabelPosition=bottom;align=center;labelBackgroundColor=#ffffff;verticalAlign=top;strokeWidth=2;strokeColor=#0080F0;shadow=0;dashed=0;shape=mxgraph.ios7.icons.user;" parent="1" vertex="1">
          <mxGeometry x="105" y="460" width="30" height="30" as="geometry" />
        </mxCell>
        <mxCell id="Jp-t8RC92nulNdhPLHjl-18" value="User" style="text;html=1;align=center;verticalAlign=middle;resizable=0;points=[];autosize=1;strokeColor=none;fillColor=none;fontSize=10;" parent="1" vertex="1">
          <mxGeometry x="100" y="430" width="40" height="20" as="geometry" />
        </mxCell>
        <mxCell id="Jp-t8RC92nulNdhPLHjl-24" style="edgeStyle=orthogonalEdgeStyle;rounded=0;orthogonalLoop=1;jettySize=auto;html=1;" parent="1" source="Jp-t8RC92nulNdhPLHjl-20" edge="1">
          <mxGeometry relative="1" as="geometry">
            <mxPoint x="390" y="475" as="targetPoint" />
          </mxGeometry>
        </mxCell>
        <mxCell id="Jp-t8RC92nulNdhPLHjl-20" value="" style="image;aspect=fixed;perimeter=ellipsePerimeter;html=1;align=center;shadow=0;dashed=0;spacingTop=3;image=img/lib/active_directory/database_partition_4.svg;" parent="1" vertex="1">
          <mxGeometry x="260" y="456.5" width="50" height="37" as="geometry" />
        </mxCell>
        <mxCell id="Jp-t8RC92nulNdhPLHjl-22" value="Create &lt;br&gt;Session" style="text;html=1;align=center;verticalAlign=middle;resizable=0;points=[];autosize=1;strokeColor=none;fillColor=none;" parent="1" vertex="1">
          <mxGeometry x="145" y="430" width="70" height="40" as="geometry" />
        </mxCell>
        <mxCell id="Jp-t8RC92nulNdhPLHjl-47" style="edgeStyle=orthogonalEdgeStyle;rounded=0;orthogonalLoop=1;jettySize=auto;html=1;" parent="1" source="Jp-t8RC92nulNdhPLHjl-23" edge="1">
          <mxGeometry relative="1" as="geometry">
            <mxPoint x="744.29" y="475" as="targetPoint" />
          </mxGeometry>
        </mxCell>
        <mxCell id="Jp-t8RC92nulNdhPLHjl-23" value="" style="image;aspect=fixed;html=1;points=[];align=center;fontSize=12;image=img/lib/azure2/general/Files.svg;" parent="1" vertex="1">
          <mxGeometry x="594.29" y="455" width="36.57" height="40" as="geometry" />
        </mxCell>
        <mxCell id="Jp-t8RC92nulNdhPLHjl-25" value="Input&lt;br&gt;Files" style="text;html=1;align=center;verticalAlign=middle;resizable=0;points=[];autosize=1;strokeColor=none;fillColor=none;" parent="1" vertex="1">
          <mxGeometry x="520" y="430" width="50" height="40" as="geometry" />
        </mxCell>
        <mxCell id="Jp-t8RC92nulNdhPLHjl-26" value="Session" style="text;html=1;align=center;verticalAlign=middle;resizable=0;points=[];autosize=1;strokeColor=none;fillColor=none;fontSize=10;" parent="1" vertex="1">
          <mxGeometry x="255" y="425" width="60" height="30" as="geometry" />
        </mxCell>
        <mxCell id="Jp-t8RC92nulNdhPLHjl-48" style="edgeStyle=orthogonalEdgeStyle;rounded=0;orthogonalLoop=1;jettySize=auto;html=1;" parent="1" source="Jp-t8RC92nulNdhPLHjl-38" edge="1">
          <mxGeometry relative="1" as="geometry">
            <mxPoint x="924.29" y="465" as="targetPoint" />
          </mxGeometry>
        </mxCell>
        <mxCell id="Jp-t8RC92nulNdhPLHjl-38" value="" style="aspect=fixed;perimeter=ellipsePerimeter;html=1;align=center;shadow=0;dashed=0;spacingTop=3;image;image=img/lib/active_directory/database_server.svg;fontSize=10;" parent="1" vertex="1">
          <mxGeometry x="754.6899999999999" y="435" width="49.199999999999996" height="59.99999999999999" as="geometry" />
        </mxCell>
        <mxCell id="Jp-t8RC92nulNdhPLHjl-39" value="File&amp;nbsp;&lt;br&gt;Database" style="text;html=1;align=center;verticalAlign=middle;resizable=0;points=[];autosize=1;strokeColor=none;fillColor=none;fontSize=10;" parent="1" vertex="1">
          <mxGeometry x="744.29" y="503.5" width="70" height="40" as="geometry" />
        </mxCell>
        <mxCell id="Jp-t8RC92nulNdhPLHjl-40" value="Session ID , User ID , File details&lt;br&gt;[File name, File Input Location]" style="text;html=1;align=center;verticalAlign=middle;resizable=0;points=[];autosize=1;strokeColor=none;fillColor=none;" parent="1" vertex="1">
          <mxGeometry x="336" y="531.5" width="200" height="40" as="geometry" />
        </mxCell>
        <mxCell id="Jp-t8RC92nulNdhPLHjl-52" style="edgeStyle=orthogonalEdgeStyle;rounded=0;orthogonalLoop=1;jettySize=auto;html=1;" parent="1" source="Jp-t8RC92nulNdhPLHjl-45" edge="1">
          <mxGeometry relative="1" as="geometry">
            <mxPoint x="1084.29" y="465" as="targetPoint" />
          </mxGeometry>
        </mxCell>
        <mxCell id="Jp-t8RC92nulNdhPLHjl-53" style="edgeStyle=orthogonalEdgeStyle;rounded=0;orthogonalLoop=1;jettySize=auto;html=1;" parent="1" source="Jp-t8RC92nulNdhPLHjl-45" edge="1">
          <mxGeometry relative="1" as="geometry">
            <mxPoint x="974.29" y="568.5" as="targetPoint" />
          </mxGeometry>
        </mxCell>
        <mxCell id="Jp-t8RC92nulNdhPLHjl-45" value="?" style="rhombus;whiteSpace=wrap;html=1;" parent="1" vertex="1">
          <mxGeometry x="934.29" y="425" width="80" height="80" as="geometry" />
        </mxCell>
        <mxCell id="Jp-t8RC92nulNdhPLHjl-50" value="Duplicates" style="text;html=1;align=center;verticalAlign=middle;resizable=0;points=[];autosize=1;strokeColor=none;fillColor=none;" parent="1" vertex="1">
          <mxGeometry x="833.89" y="473.5" width="80" height="30" as="geometry" />
        </mxCell>
        <mxCell id="Jp-t8RC92nulNdhPLHjl-51" value="Check with &lt;br&gt;Database" style="text;html=1;align=center;verticalAlign=middle;resizable=0;points=[];autosize=1;strokeColor=none;fillColor=none;" parent="1" vertex="1">
          <mxGeometry x="654.29" y="430" width="80" height="40" as="geometry" />
        </mxCell>
        <mxCell id="Jp-t8RC92nulNdhPLHjl-54" value="Yes" style="text;html=1;align=center;verticalAlign=middle;resizable=0;points=[];autosize=1;strokeColor=none;fillColor=none;" parent="1" vertex="1">
          <mxGeometry x="974.29" y="516.5" width="40" height="30" as="geometry" />
        </mxCell>
        <mxCell id="Jp-t8RC92nulNdhPLHjl-55" value="No" style="text;html=1;align=center;verticalAlign=middle;resizable=0;points=[];autosize=1;strokeColor=none;fillColor=none;" parent="1" vertex="1">
          <mxGeometry x="1014.29" y="426.5" width="40" height="30" as="geometry" />
        </mxCell>
        <mxCell id="Jp-t8RC92nulNdhPLHjl-57" style="edgeStyle=orthogonalEdgeStyle;rounded=0;orthogonalLoop=1;jettySize=auto;html=1;" parent="1" source="Jp-t8RC92nulNdhPLHjl-56" target="Jp-t8RC92nulNdhPLHjl-39" edge="1">
          <mxGeometry relative="1" as="geometry" />
        </mxCell>
        <mxCell id="Jp-t8RC92nulNdhPLHjl-56" value="Fetch Converted&amp;nbsp;&lt;br&gt;file Locations&lt;br&gt;" style="text;html=1;align=center;verticalAlign=middle;resizable=0;points=[];autosize=1;strokeColor=none;fillColor=none;" parent="1" vertex="1">
          <mxGeometry x="914.29" y="571.5" width="120" height="40" as="geometry" />
        </mxCell>
        <mxCell id="Jp-t8RC92nulNdhPLHjl-64" value="File Service" style="text;html=1;align=center;verticalAlign=middle;resizable=0;points=[];autosize=1;strokeColor=none;fillColor=none;fontSize=20;" parent="1" vertex="1">
          <mxGeometry x="85" y="775" width="130" height="40" as="geometry" />
        </mxCell>
        <mxCell id="Jp-t8RC92nulNdhPLHjl-67" value="S3" style="sketch=0;outlineConnect=0;fontColor=#232F3E;gradientColor=none;fillColor=#5f85d6;strokeColor=none;dashed=0;verticalLabelPosition=bottom;verticalAlign=top;align=center;html=1;fontSize=12;fontStyle=0;aspect=fixed;pointerEvents=1;shape=mxgraph.aws4.bucket;" parent="1" vertex="1">
          <mxGeometry x="215.00000000000006" y="935" width="48.08" height="50" as="geometry" />
        </mxCell>
        <mxCell id="Jp-t8RC92nulNdhPLHjl-68" value="" style="html=1;verticalLabelPosition=bottom;align=center;labelBackgroundColor=#ffffff;verticalAlign=top;strokeWidth=2;strokeColor=#0080F0;shadow=0;dashed=0;shape=mxgraph.ios7.icons.folder;" parent="1" vertex="1">
          <mxGeometry x="310" y="840.25" width="30" height="19.5" as="geometry" />
        </mxCell>
        <mxCell id="Jp-t8RC92nulNdhPLHjl-69" value="Session Folder based on&lt;br&gt;session id, user id&amp;nbsp;" style="text;html=1;align=center;verticalAlign=middle;resizable=0;points=[];autosize=1;strokeColor=none;fillColor=none;" parent="1" vertex="1">
          <mxGeometry x="251.24" y="865.5" width="160" height="40" as="geometry" />
        </mxCell>
        <mxCell id="Jp-t8RC92nulNdhPLHjl-73" value="" style="group" parent="1" vertex="1" connectable="0">
          <mxGeometry x="400" y="443.5" width="102.48" height="75" as="geometry" />
        </mxCell>
        <mxCell id="Jp-t8RC92nulNdhPLHjl-83" style="edgeStyle=orthogonalEdgeStyle;rounded=0;orthogonalLoop=1;jettySize=auto;html=1;" parent="Jp-t8RC92nulNdhPLHjl-73" source="Jp-t8RC92nulNdhPLHjl-74" edge="1">
          <mxGeometry relative="1" as="geometry">
            <mxPoint x="180" y="35" as="targetPoint" />
          </mxGeometry>
        </mxCell>
        <mxCell id="Jp-t8RC92nulNdhPLHjl-74" value="" style="html=1;verticalLabelPosition=bottom;align=center;labelBackgroundColor=#ffffff;verticalAlign=top;strokeWidth=2;strokeColor=#0080F0;shadow=0;dashed=0;shape=mxgraph.ios7.icons.window;" parent="Jp-t8RC92nulNdhPLHjl-73" vertex="1">
          <mxGeometry width="102.48" height="70" as="geometry" />
        </mxCell>
        <mxCell id="Jp-t8RC92nulNdhPLHjl-76" value="Select Service" style="text;html=1;align=center;verticalAlign=middle;resizable=0;points=[];autosize=1;strokeColor=none;fillColor=none;fontSize=12;" parent="Jp-t8RC92nulNdhPLHjl-73" vertex="1">
          <mxGeometry x="-0.8000000000000114" y="45" width="100" height="30" as="geometry" />
        </mxCell>
        <mxCell id="Jp-t8RC92nulNdhPLHjl-82" value="" style="html=1;verticalLabelPosition=bottom;align=center;labelBackgroundColor=#ffffff;verticalAlign=top;strokeWidth=2;strokeColor=#0080F0;shadow=0;dashed=0;shape=mxgraph.ios7.icons.cloud;" parent="Jp-t8RC92nulNdhPLHjl-73" vertex="1">
          <mxGeometry x="18.069999999999993" y="15" width="50" height="30" as="geometry" />
        </mxCell>
        <mxCell id="Jp-t8RC92nulNdhPLHjl-88" style="edgeStyle=orthogonalEdgeStyle;rounded=0;orthogonalLoop=1;jettySize=auto;html=1;" parent="1" source="Jp-t8RC92nulNdhPLHjl-84" edge="1">
          <mxGeometry relative="1" as="geometry">
            <mxPoint x="290" y="850.5" as="targetPoint" />
          </mxGeometry>
        </mxCell>
        <mxCell id="Jp-t8RC92nulNdhPLHjl-84" value="" style="sketch=0;points=[[0,0,0],[0.25,0,0],[0.5,0,0],[0.75,0,0],[1,0,0],[0,1,0],[0.25,1,0],[0.5,1,0],[0.75,1,0],[1,1,0],[0,0.25,0],[0,0.5,0],[0,0.75,0],[1,0.25,0],[1,0.5,0],[1,0.75,0]];outlineConnect=0;fontColor=#232F3E;gradientColor=#4D72F3;gradientDirection=north;fillColor=#3334B9;strokeColor=#ffffff;dashed=0;verticalLabelPosition=bottom;verticalAlign=top;align=center;html=1;fontSize=12;fontStyle=0;aspect=fixed;shape=mxgraph.aws4.resourceIcon;resIcon=mxgraph.aws4.cloud_control_api;" parent="1" vertex="1">
          <mxGeometry x="120" y="825.5" width="50" height="50" as="geometry" />
        </mxCell>
        <mxCell id="Jp-t8RC92nulNdhPLHjl-85" value="Session API" style="text;html=1;align=center;verticalAlign=middle;resizable=0;points=[];autosize=1;strokeColor=none;fillColor=none;" parent="1" vertex="1">
          <mxGeometry x="100" y="875.5" width="90" height="30" as="geometry" />
        </mxCell>
        <mxCell id="Jp-t8RC92nulNdhPLHjl-89" value="Create Folders Based on Service Name" style="shape=table;startSize=30;container=1;collapsible=0;childLayout=tableLayout;fontStyle=1;align=center;pointerEvents=1;" parent="1" vertex="1">
          <mxGeometry x="439.6" y="810.5" width="342.36" height="80" as="geometry" />
        </mxCell>
        <mxCell id="Jp-t8RC92nulNdhPLHjl-90" value="" style="shape=partialRectangle;html=1;whiteSpace=wrap;collapsible=0;dropTarget=0;pointerEvents=0;fillColor=none;top=0;left=0;bottom=0;right=0;points=[[0,0.5],[1,0.5]];portConstraint=eastwest;" parent="Jp-t8RC92nulNdhPLHjl-89" vertex="1">
          <mxGeometry y="30" width="342.36" height="50" as="geometry" />
        </mxCell>
        <mxCell id="Jp-t8RC92nulNdhPLHjl-91" value="Input" style="shape=partialRectangle;html=1;whiteSpace=wrap;connectable=0;fillColor=none;top=0;left=0;bottom=0;right=0;overflow=hidden;pointerEvents=1;align=center;" parent="Jp-t8RC92nulNdhPLHjl-90" vertex="1">
          <mxGeometry width="54" height="50" as="geometry">
            <mxRectangle width="54" height="50" as="alternateBounds" />
          </mxGeometry>
        </mxCell>
        <mxCell id="Jp-t8RC92nulNdhPLHjl-92" value="Converted" style="shape=partialRectangle;html=1;whiteSpace=wrap;connectable=0;fillColor=none;top=0;left=0;bottom=0;right=0;overflow=hidden;pointerEvents=1;align=center;" parent="Jp-t8RC92nulNdhPLHjl-90" vertex="1">
          <mxGeometry x="54" width="79" height="50" as="geometry">
            <mxRectangle width="79" height="50" as="alternateBounds" />
          </mxGeometry>
        </mxCell>
        <mxCell id="Jp-t8RC92nulNdhPLHjl-93" value="Output" style="shape=partialRectangle;html=1;whiteSpace=wrap;connectable=0;fillColor=none;top=0;left=0;bottom=0;right=0;overflow=hidden;pointerEvents=1;align=center;" parent="Jp-t8RC92nulNdhPLHjl-90" vertex="1">
          <mxGeometry x="133" width="60" height="50" as="geometry">
            <mxRectangle width="60" height="50" as="alternateBounds" />
          </mxGeometry>
        </mxCell>
        <mxCell id="Jp-t8RC92nulNdhPLHjl-94" value="Excel" style="shape=partialRectangle;html=1;whiteSpace=wrap;connectable=0;fillColor=none;top=0;left=0;bottom=0;right=0;overflow=hidden;pointerEvents=1;align=center;" parent="Jp-t8RC92nulNdhPLHjl-90" vertex="1">
          <mxGeometry x="193" width="47" height="50" as="geometry">
            <mxRectangle width="47" height="50" as="alternateBounds" />
          </mxGeometry>
        </mxCell>
        <mxCell id="Jp-t8RC92nulNdhPLHjl-95" value="??" style="shape=partialRectangle;html=1;whiteSpace=wrap;connectable=0;fillColor=none;top=0;left=0;bottom=0;right=0;overflow=hidden;pointerEvents=1;align=center;" parent="Jp-t8RC92nulNdhPLHjl-90" vertex="1">
          <mxGeometry x="240" width="102" height="50" as="geometry">
            <mxRectangle width="102" height="50" as="alternateBounds" />
          </mxGeometry>
        </mxCell>
        <mxCell id="Jp-t8RC92nulNdhPLHjl-98" style="edgeStyle=orthogonalEdgeStyle;rounded=0;orthogonalLoop=1;jettySize=auto;html=1;" parent="1" source="Jp-t8RC92nulNdhPLHjl-90" edge="1">
          <mxGeometry relative="1" as="geometry">
            <mxPoint x="920" y="865.5" as="targetPoint" />
          </mxGeometry>
        </mxCell>
        <mxCell id="Jp-t8RC92nulNdhPLHjl-99" value="Create API with&amp;nbsp;&lt;br&gt;the folder details" style="text;html=1;align=center;verticalAlign=middle;resizable=0;points=[];autosize=1;strokeColor=none;fillColor=none;" parent="1" vertex="1">
          <mxGeometry x="793.89" y="819.75" width="110" height="40" as="geometry" />
        </mxCell>
        <mxCell id="Jp-t8RC92nulNdhPLHjl-104" style="edgeStyle=orthogonalEdgeStyle;rounded=0;orthogonalLoop=1;jettySize=auto;html=1;" parent="1" edge="1">
          <mxGeometry relative="1" as="geometry">
            <mxPoint x="436.24" y="854.49" as="targetPoint" />
            <mxPoint x="350" y="854" as="sourcePoint" />
          </mxGeometry>
        </mxCell>
        <mxCell id="Jp-t8RC92nulNdhPLHjl-109" value="/session_id_user/{input}&lt;br&gt;/session_id_user/{output}" style="text;html=1;align=center;verticalAlign=middle;resizable=0;points=[];autosize=1;strokeColor=none;fillColor=none;" parent="1" vertex="1">
          <mxGeometry x="470.86" y="895" width="160" height="40" as="geometry" />
        </mxCell>
        <mxCell id="Jp-t8RC92nulNdhPLHjl-110" value="used by the convertor&amp;nbsp;&lt;br&gt;services for file location" style="text;html=1;align=center;verticalAlign=middle;resizable=0;points=[];autosize=1;strokeColor=none;fillColor=none;" parent="1" vertex="1">
          <mxGeometry x="631.96" y="900" width="150" height="40" as="geometry" />
        </mxCell>
        <mxCell id="Jp-t8RC92nulNdhPLHjl-111" value="File Service API" style="shape=table;startSize=40;container=1;collapsible=0;childLayout=tableLayout;fontStyle=1;align=center;" parent="1" vertex="1">
          <mxGeometry x="920" y="780" width="200" height="270" as="geometry" />
        </mxCell>
        <mxCell id="Jp-t8RC92nulNdhPLHjl-112" value="" style="shape=tableRow;horizontal=0;startSize=0;swimlaneHead=0;swimlaneBody=0;top=0;left=0;bottom=0;right=0;collapsible=0;dropTarget=0;fillColor=none;points=[[0,0.5],[1,0.5]];portConstraint=eastwest;" parent="Jp-t8RC92nulNdhPLHjl-111" vertex="1">
          <mxGeometry y="40" width="200" height="38" as="geometry" />
        </mxCell>
        <mxCell id="Jp-t8RC92nulNdhPLHjl-113" value="Create Folder" style="shape=partialRectangle;html=1;whiteSpace=wrap;connectable=0;fillColor=none;top=0;left=0;bottom=0;right=0;overflow=hidden;" parent="Jp-t8RC92nulNdhPLHjl-112" vertex="1">
          <mxGeometry width="200" height="38" as="geometry">
            <mxRectangle width="200" height="38" as="alternateBounds" />
          </mxGeometry>
        </mxCell>
        <mxCell id="Jp-t8RC92nulNdhPLHjl-114" value="" style="shape=tableRow;horizontal=0;startSize=0;swimlaneHead=0;swimlaneBody=0;top=0;left=0;bottom=0;right=0;collapsible=0;dropTarget=0;fillColor=none;points=[[0,0.5],[1,0.5]];portConstraint=eastwest;" parent="Jp-t8RC92nulNdhPLHjl-111" vertex="1">
          <mxGeometry y="78" width="200" height="39" as="geometry" />
        </mxCell>
        <mxCell id="Jp-t8RC92nulNdhPLHjl-115" value="Delete Folder" style="shape=partialRectangle;html=1;whiteSpace=wrap;connectable=0;fillColor=none;top=0;left=0;bottom=0;right=0;overflow=hidden;" parent="Jp-t8RC92nulNdhPLHjl-114" vertex="1">
          <mxGeometry width="200" height="39" as="geometry">
            <mxRectangle width="200" height="39" as="alternateBounds" />
          </mxGeometry>
        </mxCell>
        <mxCell id="Jp-t8RC92nulNdhPLHjl-116" value="" style="shape=tableRow;horizontal=0;startSize=0;swimlaneHead=0;swimlaneBody=0;top=0;left=0;bottom=0;right=0;collapsible=0;dropTarget=0;fillColor=none;points=[[0,0.5],[1,0.5]];portConstraint=eastwest;" parent="Jp-t8RC92nulNdhPLHjl-111" vertex="1">
          <mxGeometry y="117" width="200" height="38" as="geometry" />
        </mxCell>
        <mxCell id="Jp-t8RC92nulNdhPLHjl-117" value="Put Files to Folder" style="shape=partialRectangle;html=1;whiteSpace=wrap;connectable=0;fillColor=none;top=0;left=0;bottom=0;right=0;overflow=hidden;" parent="Jp-t8RC92nulNdhPLHjl-116" vertex="1">
          <mxGeometry width="200" height="38" as="geometry">
            <mxRectangle width="200" height="38" as="alternateBounds" />
          </mxGeometry>
        </mxCell>
        <mxCell id="Jp-t8RC92nulNdhPLHjl-118" style="shape=tableRow;horizontal=0;startSize=0;swimlaneHead=0;swimlaneBody=0;top=0;left=0;bottom=0;right=0;collapsible=0;dropTarget=0;fillColor=none;points=[[0,0.5],[1,0.5]];portConstraint=eastwest;" parent="Jp-t8RC92nulNdhPLHjl-111" vertex="1">
          <mxGeometry y="155" width="200" height="38" as="geometry" />
        </mxCell>
        <mxCell id="Jp-t8RC92nulNdhPLHjl-119" value="Get Files / File Path" style="shape=partialRectangle;html=1;whiteSpace=wrap;connectable=0;fillColor=none;top=0;left=0;bottom=0;right=0;overflow=hidden;" parent="Jp-t8RC92nulNdhPLHjl-118" vertex="1">
          <mxGeometry width="200" height="38" as="geometry">
            <mxRectangle width="200" height="38" as="alternateBounds" />
          </mxGeometry>
        </mxCell>
        <mxCell id="Jp-t8RC92nulNdhPLHjl-120" style="shape=tableRow;horizontal=0;startSize=0;swimlaneHead=0;swimlaneBody=0;top=0;left=0;bottom=0;right=0;collapsible=0;dropTarget=0;fillColor=none;points=[[0,0.5],[1,0.5]];portConstraint=eastwest;" parent="Jp-t8RC92nulNdhPLHjl-111" vertex="1">
          <mxGeometry y="193" width="200" height="39" as="geometry" />
        </mxCell>
        <mxCell id="Jp-t8RC92nulNdhPLHjl-121" value="Delete Files" style="shape=partialRectangle;html=1;whiteSpace=wrap;connectable=0;fillColor=none;top=0;left=0;bottom=0;right=0;overflow=hidden;" parent="Jp-t8RC92nulNdhPLHjl-120" vertex="1">
          <mxGeometry width="200" height="39" as="geometry">
            <mxRectangle width="200" height="39" as="alternateBounds" />
          </mxGeometry>
        </mxCell>
        <mxCell id="Jp-t8RC92nulNdhPLHjl-122" style="shape=tableRow;horizontal=0;startSize=0;swimlaneHead=0;swimlaneBody=0;top=0;left=0;bottom=0;right=0;collapsible=0;dropTarget=0;fillColor=none;points=[[0,0.5],[1,0.5]];portConstraint=eastwest;" parent="Jp-t8RC92nulNdhPLHjl-111" vertex="1">
          <mxGeometry y="232" width="200" height="38" as="geometry" />
        </mxCell>
        <mxCell id="Jp-t8RC92nulNdhPLHjl-123" value="Delete all" style="shape=partialRectangle;html=1;whiteSpace=wrap;connectable=0;fillColor=none;top=0;left=0;bottom=0;right=0;overflow=hidden;" parent="Jp-t8RC92nulNdhPLHjl-122" vertex="1">
          <mxGeometry width="200" height="38" as="geometry">
            <mxRectangle width="200" height="38" as="alternateBounds" />
          </mxGeometry>
        </mxCell>
        <mxCell id="Jp-t8RC92nulNdhPLHjl-127" value="Session Service API" style="shape=table;startSize=40;container=1;collapsible=0;childLayout=tableLayout;fontStyle=1;align=center;" parent="1" vertex="1">
          <mxGeometry x="1090" y="400" width="200" height="270" as="geometry" />
        </mxCell>
        <mxCell id="Jp-t8RC92nulNdhPLHjl-128" value="" style="shape=tableRow;horizontal=0;startSize=0;swimlaneHead=0;swimlaneBody=0;top=0;left=0;bottom=0;right=0;collapsible=0;dropTarget=0;fillColor=none;points=[[0,0.5],[1,0.5]];portConstraint=eastwest;" parent="Jp-t8RC92nulNdhPLHjl-127" vertex="1">
          <mxGeometry y="40" width="200" height="38" as="geometry" />
        </mxCell>
        <mxCell id="Jp-t8RC92nulNdhPLHjl-129" value="Session ID" style="shape=partialRectangle;html=1;whiteSpace=wrap;connectable=0;fillColor=none;top=0;left=0;bottom=0;right=0;overflow=hidden;" parent="Jp-t8RC92nulNdhPLHjl-128" vertex="1">
          <mxGeometry width="200" height="38" as="geometry">
            <mxRectangle width="200" height="38" as="alternateBounds" />
          </mxGeometry>
        </mxCell>
        <mxCell id="Jp-t8RC92nulNdhPLHjl-130" value="" style="shape=tableRow;horizontal=0;startSize=0;swimlaneHead=0;swimlaneBody=0;top=0;left=0;bottom=0;right=0;collapsible=0;dropTarget=0;fillColor=none;points=[[0,0.5],[1,0.5]];portConstraint=eastwest;" parent="Jp-t8RC92nulNdhPLHjl-127" vertex="1">
          <mxGeometry y="78" width="200" height="39" as="geometry" />
        </mxCell>
        <mxCell id="Jp-t8RC92nulNdhPLHjl-131" value="User ID" style="shape=partialRectangle;html=1;whiteSpace=wrap;connectable=0;fillColor=none;top=0;left=0;bottom=0;right=0;overflow=hidden;" parent="Jp-t8RC92nulNdhPLHjl-130" vertex="1">
          <mxGeometry width="200" height="39" as="geometry">
            <mxRectangle width="200" height="39" as="alternateBounds" />
          </mxGeometry>
        </mxCell>
        <mxCell id="Jp-t8RC92nulNdhPLHjl-132" value="" style="shape=tableRow;horizontal=0;startSize=0;swimlaneHead=0;swimlaneBody=0;top=0;left=0;bottom=0;right=0;collapsible=0;dropTarget=0;fillColor=none;points=[[0,0.5],[1,0.5]];portConstraint=eastwest;" parent="Jp-t8RC92nulNdhPLHjl-127" vertex="1">
          <mxGeometry y="117" width="200" height="38" as="geometry" />
        </mxCell>
        <mxCell id="Jp-t8RC92nulNdhPLHjl-133" value="Service Name" style="shape=partialRectangle;html=1;whiteSpace=wrap;connectable=0;fillColor=none;top=0;left=0;bottom=0;right=0;overflow=hidden;" parent="Jp-t8RC92nulNdhPLHjl-132" vertex="1">
          <mxGeometry width="200" height="38" as="geometry">
            <mxRectangle width="200" height="38" as="alternateBounds" />
          </mxGeometry>
        </mxCell>
        <mxCell id="Jp-t8RC92nulNdhPLHjl-134" style="shape=tableRow;horizontal=0;startSize=0;swimlaneHead=0;swimlaneBody=0;top=0;left=0;bottom=0;right=0;collapsible=0;dropTarget=0;fillColor=none;points=[[0,0.5],[1,0.5]];portConstraint=eastwest;" parent="Jp-t8RC92nulNdhPLHjl-127" vertex="1">
          <mxGeometry y="155" width="200" height="38" as="geometry" />
        </mxCell>
        <mxCell id="Jp-t8RC92nulNdhPLHjl-135" value="File Details" style="shape=partialRectangle;html=1;whiteSpace=wrap;connectable=0;fillColor=none;top=0;left=0;bottom=0;right=0;overflow=hidden;" parent="Jp-t8RC92nulNdhPLHjl-134" vertex="1">
          <mxGeometry width="200" height="38" as="geometry">
            <mxRectangle width="200" height="38" as="alternateBounds" />
          </mxGeometry>
        </mxCell>
        <mxCell id="Jp-t8RC92nulNdhPLHjl-136" style="shape=tableRow;horizontal=0;startSize=0;swimlaneHead=0;swimlaneBody=0;top=0;left=0;bottom=0;right=0;collapsible=0;dropTarget=0;fillColor=none;points=[[0,0.5],[1,0.5]];portConstraint=eastwest;" parent="Jp-t8RC92nulNdhPLHjl-127" vertex="1">
          <mxGeometry y="193" width="200" height="39" as="geometry" />
        </mxCell>
        <mxCell id="Jp-t8RC92nulNdhPLHjl-137" value="Delete Files" style="shape=partialRectangle;html=1;whiteSpace=wrap;connectable=0;fillColor=none;top=0;left=0;bottom=0;right=0;overflow=hidden;" parent="Jp-t8RC92nulNdhPLHjl-136" vertex="1">
          <mxGeometry width="200" height="39" as="geometry">
            <mxRectangle width="200" height="39" as="alternateBounds" />
          </mxGeometry>
        </mxCell>
        <mxCell id="Jp-t8RC92nulNdhPLHjl-138" style="shape=tableRow;horizontal=0;startSize=0;swimlaneHead=0;swimlaneBody=0;top=0;left=0;bottom=0;right=0;collapsible=0;dropTarget=0;fillColor=none;points=[[0,0.5],[1,0.5]];portConstraint=eastwest;" parent="Jp-t8RC92nulNdhPLHjl-127" vertex="1">
          <mxGeometry y="232" width="200" height="38" as="geometry" />
        </mxCell>
        <mxCell id="Jp-t8RC92nulNdhPLHjl-139" value="Delete all" style="shape=partialRectangle;html=1;whiteSpace=wrap;connectable=0;fillColor=none;top=0;left=0;bottom=0;right=0;overflow=hidden;" parent="Jp-t8RC92nulNdhPLHjl-138" vertex="1">
          <mxGeometry width="200" height="38" as="geometry">
            <mxRectangle width="200" height="38" as="alternateBounds" />
          </mxGeometry>
        </mxCell>
        <mxCell id="Jp-t8RC92nulNdhPLHjl-142" style="edgeStyle=orthogonalEdgeStyle;rounded=0;orthogonalLoop=1;jettySize=auto;html=1;dashed=1;startArrow=classic;startFill=1;" parent="1" source="Jp-t8RC92nulNdhPLHjl-140" edge="1">
          <mxGeometry relative="1" as="geometry">
            <mxPoint x="900" y="1035.0000000000002" as="targetPoint" />
          </mxGeometry>
        </mxCell>
        <mxCell id="Jp-t8RC92nulNdhPLHjl-143" style="edgeStyle=orthogonalEdgeStyle;rounded=0;orthogonalLoop=1;jettySize=auto;html=1;dashed=1;startArrow=classic;startFill=1;" parent="1" source="Jp-t8RC92nulNdhPLHjl-140" edge="1">
          <mxGeometry relative="1" as="geometry">
            <mxPoint x="320" y="920.0000000000002" as="targetPoint" />
          </mxGeometry>
        </mxCell>
        <mxCell id="Jp-t8RC92nulNdhPLHjl-140" value="" style="sketch=0;points=[[0,0,0],[0.25,0,0],[0.5,0,0],[0.75,0,0],[1,0,0],[0,1,0],[0.25,1,0],[0.5,1,0],[0.75,1,0],[1,1,0],[0,0.25,0],[0,0.5,0],[0,0.75,0],[1,0.25,0],[1,0.5,0],[1,0.75,0]];outlineConnect=0;fontColor=#232F3E;gradientColor=#4D72F3;gradientDirection=north;fillColor=#3334B9;strokeColor=#ffffff;dashed=0;verticalLabelPosition=bottom;verticalAlign=top;align=center;html=1;fontSize=12;fontStyle=0;aspect=fixed;shape=mxgraph.aws4.resourceIcon;resIcon=mxgraph.aws4.cloud_control_api;" parent="1" vertex="1">
          <mxGeometry x="532.6" y="1010" width="50" height="50" as="geometry" />
        </mxCell>
        <mxCell id="Jp-t8RC92nulNdhPLHjl-149" style="edgeStyle=orthogonalEdgeStyle;rounded=0;orthogonalLoop=1;jettySize=auto;html=1;" parent="1" source="Jp-t8RC92nulNdhPLHjl-141" edge="1">
          <mxGeometry relative="1" as="geometry">
            <mxPoint x="557.5999999999999" y="1170" as="targetPoint" />
          </mxGeometry>
        </mxCell>
        <mxCell id="Jp-t8RC92nulNdhPLHjl-141" value="File API" style="text;html=1;align=center;verticalAlign=middle;resizable=0;points=[];autosize=1;strokeColor=none;fillColor=none;" parent="1" vertex="1">
          <mxGeometry x="527.6" y="1069.75" width="60" height="30" as="geometry" />
        </mxCell>
        <mxCell id="Jp-t8RC92nulNdhPLHjl-146" style="rounded=0;orthogonalLoop=1;jettySize=auto;html=1;dashed=1;startArrow=classic;startFill=1;" parent="1" source="Jp-t8RC92nulNdhPLHjl-144" edge="1">
          <mxGeometry relative="1" as="geometry">
            <mxPoint x="1080" y="636.5" as="targetPoint" />
          </mxGeometry>
        </mxCell>
        <mxCell id="Jp-t8RC92nulNdhPLHjl-144" value="" style="sketch=0;points=[[0,0,0],[0.25,0,0],[0.5,0,0],[0.75,0,0],[1,0,0],[0,1,0],[0.25,1,0],[0.5,1,0],[0.75,1,0],[1,1,0],[0,0.25,0],[0,0.5,0],[0,0.75,0],[1,0.25,0],[1,0.5,0],[1,0.75,0]];outlineConnect=0;fontColor=#232F3E;gradientColor=#4D72F3;gradientDirection=north;fillColor=#3334B9;strokeColor=#ffffff;dashed=0;verticalLabelPosition=bottom;verticalAlign=top;align=center;html=1;fontSize=12;fontStyle=0;aspect=fixed;shape=mxgraph.aws4.resourceIcon;resIcon=mxgraph.aws4.cloud_control_api;" parent="1" vertex="1">
          <mxGeometry x="684.29" y="611.5" width="50" height="50" as="geometry" />
        </mxCell>
        <mxCell id="Jp-t8RC92nulNdhPLHjl-145" value="Session API" style="text;html=1;align=center;verticalAlign=middle;resizable=0;points=[];autosize=1;strokeColor=none;fillColor=none;" parent="1" vertex="1">
          <mxGeometry x="661.96" y="670" width="90" height="30" as="geometry" />
        </mxCell>
        <mxCell id="Jp-t8RC92nulNdhPLHjl-147" value="" style="aspect=fixed;perimeter=ellipsePerimeter;html=1;align=center;shadow=0;dashed=0;spacingTop=3;image;image=img/lib/active_directory/database_server.svg;fontSize=10;" parent="1" vertex="1">
          <mxGeometry x="532.5999999999999" y="1181" width="49.199999999999996" height="59.99999999999999" as="geometry" />
        </mxCell>
        <mxCell id="Jp-t8RC92nulNdhPLHjl-150" value="Update File&lt;br&gt;locations to&amp;nbsp;&lt;br&gt;database" style="text;html=1;align=center;verticalAlign=middle;resizable=0;points=[];autosize=1;strokeColor=none;fillColor=none;" parent="1" vertex="1">
          <mxGeometry x="585.78" y="1181" width="90" height="60" as="geometry" />
        </mxCell>
        <mxCell id="Jp-t8RC92nulNdhPLHjl-151" value="Convertor&lt;br style=&quot;font-size: 20px;&quot;&gt;Service" style="text;html=1;align=center;verticalAlign=middle;resizable=0;points=[];autosize=1;strokeColor=none;fillColor=none;fontSize=20;" parent="1" vertex="1">
          <mxGeometry x="120" y="1320" width="110" height="60" as="geometry" />
        </mxCell>
        <mxCell id="Jp-t8RC92nulNdhPLHjl-213" style="edgeStyle=orthogonalEdgeStyle;rounded=0;orthogonalLoop=1;jettySize=auto;html=1;dashed=1;startArrow=classic;startFill=1;" parent="1" source="Jp-t8RC92nulNdhPLHjl-152" edge="1">
          <mxGeometry relative="1" as="geometry">
            <mxPoint x="1910" y="330" as="targetPoint" />
          </mxGeometry>
        </mxCell>
        <mxCell id="Jp-t8RC92nulNdhPLHjl-152" value="" style="aspect=fixed;perimeter=ellipsePerimeter;html=1;align=center;shadow=0;dashed=0;spacingTop=3;image;image=img/lib/active_directory/web_server.svg;" parent="1" vertex="1">
          <mxGeometry x="1630" y="295" width="56" height="70" as="geometry" />
        </mxCell>
        <mxCell id="Jp-t8RC92nulNdhPLHjl-156" value="" style="sketch=0;outlineConnect=0;fontColor=#232F3E;gradientColor=none;fillColor=#6f97e1;strokeColor=none;dashed=0;verticalLabelPosition=bottom;verticalAlign=top;align=center;html=1;fontSize=12;fontStyle=0;aspect=fixed;shape=mxgraph.aws4.mainframe_modernization_converter;" parent="1" vertex="1">
          <mxGeometry x="322" y="1396" width="78" height="78" as="geometry" />
        </mxCell>
        <mxCell id="Jp-t8RC92nulNdhPLHjl-159" style="edgeStyle=orthogonalEdgeStyle;rounded=0;orthogonalLoop=1;jettySize=auto;html=1;" parent="1" source="Jp-t8RC92nulNdhPLHjl-157" edge="1">
          <mxGeometry relative="1" as="geometry">
            <mxPoint x="610" y="500" as="targetPoint" />
          </mxGeometry>
        </mxCell>
        <mxCell id="Jp-t8RC92nulNdhPLHjl-157" value="" style="sketch=0;points=[[0,0,0],[0.25,0,0],[0.5,0,0],[0.75,0,0],[1,0,0],[0,1,0],[0.25,1,0],[0.5,1,0],[0.75,1,0],[1,1,0],[0,0.25,0],[0,0.5,0],[0,0.75,0],[1,0.25,0],[1,0.5,0],[1,0.75,0]];outlineConnect=0;fontColor=#232F3E;gradientColor=#4D72F3;gradientDirection=north;fillColor=#3334B9;strokeColor=#ffffff;dashed=0;verticalLabelPosition=bottom;verticalAlign=top;align=center;html=1;fontSize=12;fontStyle=0;aspect=fixed;shape=mxgraph.aws4.resourceIcon;resIcon=mxgraph.aws4.cloud_control_api;" parent="1" vertex="1">
          <mxGeometry x="416.24" y="610.25" width="50" height="50" as="geometry" />
        </mxCell>
        <mxCell id="Jp-t8RC92nulNdhPLHjl-158" value="File API" style="text;html=1;align=center;verticalAlign=middle;resizable=0;points=[];autosize=1;strokeColor=none;fillColor=none;" parent="1" vertex="1">
          <mxGeometry x="411.24" y="670" width="60" height="30" as="geometry" />
        </mxCell>
        <mxCell id="Jp-t8RC92nulNdhPLHjl-162" style="edgeStyle=orthogonalEdgeStyle;rounded=0;orthogonalLoop=1;jettySize=auto;html=1;" parent="1" source="Jp-t8RC92nulNdhPLHjl-160" edge="1">
          <mxGeometry relative="1" as="geometry">
            <mxPoint x="320" y="1435" as="targetPoint" />
          </mxGeometry>
        </mxCell>
        <mxCell id="Jp-t8RC92nulNdhPLHjl-160" value="" style="sketch=0;points=[[0,0,0],[0.25,0,0],[0.5,0,0],[0.75,0,0],[1,0,0],[0,1,0],[0.25,1,0],[0.5,1,0],[0.75,1,0],[1,1,0],[0,0.25,0],[0,0.5,0],[0,0.75,0],[1,0.25,0],[1,0.5,0],[1,0.75,0]];outlineConnect=0;fontColor=#232F3E;gradientColor=#4D72F3;gradientDirection=north;fillColor=#3334B9;strokeColor=#ffffff;dashed=0;verticalLabelPosition=bottom;verticalAlign=top;align=center;html=1;fontSize=12;fontStyle=0;aspect=fixed;shape=mxgraph.aws4.resourceIcon;resIcon=mxgraph.aws4.cloud_control_api;" parent="1" vertex="1">
          <mxGeometry x="140" y="1410" width="50" height="50" as="geometry" />
        </mxCell>
        <mxCell id="Jp-t8RC92nulNdhPLHjl-161" value="File API" style="text;html=1;align=center;verticalAlign=middle;resizable=0;points=[];autosize=1;strokeColor=none;fillColor=none;" parent="1" vertex="1">
          <mxGeometry x="135" y="1469.75" width="60" height="30" as="geometry" />
        </mxCell>
        <mxCell id="Jp-t8RC92nulNdhPLHjl-163" value="Get File location&lt;br&gt;details" style="text;html=1;align=center;verticalAlign=middle;resizable=0;points=[];autosize=1;strokeColor=none;fillColor=none;" parent="1" vertex="1">
          <mxGeometry x="200" y="1391" width="110" height="40" as="geometry" />
        </mxCell>
        <mxCell id="Jp-t8RC92nulNdhPLHjl-164" value="/{input_file_location}&lt;br&gt;/{output_file_location}" style="text;html=1;align=center;verticalAlign=middle;resizable=0;points=[];autosize=1;strokeColor=none;fillColor=none;" parent="1" vertex="1">
          <mxGeometry x="411.24" y="1410" width="140" height="40" as="geometry" />
        </mxCell>
        <mxCell id="Jp-t8RC92nulNdhPLHjl-165" value="" style="points=[];aspect=fixed;html=1;align=center;shadow=0;dashed=0;image;image=img/lib/allied_telesis/storage/Datacenter_Server_Storage_Unit_Large.svg;" parent="1" vertex="1">
          <mxGeometry x="1887" y="1221" width="38.78" height="40" as="geometry" />
        </mxCell>
        <mxCell id="Jp-t8RC92nulNdhPLHjl-166" value="" style="verticalLabelPosition=bottom;html=1;verticalAlign=top;align=center;strokeColor=none;fillColor=#5378ce;shape=mxgraph.azure.worker_role;" parent="1" vertex="1">
          <mxGeometry x="262.04" y="1700" width="50" height="40" as="geometry" />
        </mxCell>
        <mxCell id="Jp-t8RC92nulNdhPLHjl-167" value="JT-USD&lt;br&gt;Structure" style="text;html=1;align=center;verticalAlign=middle;resizable=0;points=[];autosize=1;strokeColor=none;fillColor=none;" parent="1" vertex="1">
          <mxGeometry x="250.00000000000006" y="1639.75" width="70" height="40" as="geometry" />
        </mxCell>
        <mxCell id="Jp-t8RC92nulNdhPLHjl-169" value="JT-USD&amp;nbsp;&lt;br&gt;Mesh Convertor" style="text;html=1;align=center;verticalAlign=middle;resizable=0;points=[];autosize=1;strokeColor=none;fillColor=none;" parent="1" vertex="1">
          <mxGeometry x="382.73" y="1639.75" width="110" height="40" as="geometry" />
        </mxCell>
        <mxCell id="Jp-t8RC92nulNdhPLHjl-170" value="" style="endArrow=none;html=1;rounded=0;" parent="1" edge="1">
          <mxGeometry width="50" height="50" relative="1" as="geometry">
            <mxPoint x="358" y="1880" as="sourcePoint" />
            <mxPoint x="358.03999999999996" y="1520" as="targetPoint" />
          </mxGeometry>
        </mxCell>
        <mxCell id="Jp-t8RC92nulNdhPLHjl-171" value="" style="verticalLabelPosition=bottom;html=1;verticalAlign=top;align=center;strokeColor=none;fillColor=#5378ce;shape=mxgraph.azure.worker_role;" parent="1" vertex="1">
          <mxGeometry x="262.04" y="1590" width="50" height="40" as="geometry" />
        </mxCell>
        <mxCell id="Jp-t8RC92nulNdhPLHjl-172" value="PLXML" style="text;html=1;align=center;verticalAlign=middle;resizable=0;points=[];autosize=1;strokeColor=none;fillColor=none;" parent="1" vertex="1">
          <mxGeometry x="257.04000000000013" y="1755" width="60" height="30" as="geometry" />
        </mxCell>
        <mxCell id="Jp-t8RC92nulNdhPLHjl-173" value="" style="verticalLabelPosition=bottom;html=1;verticalAlign=top;align=center;strokeColor=none;fillColor=#5378ce;shape=mxgraph.azure.worker_role;" parent="1" vertex="1">
          <mxGeometry x="263.82" y="1790" width="50" height="40" as="geometry" />
        </mxCell>
        <mxCell id="Jp-t8RC92nulNdhPLHjl-174" value="Others" style="text;html=1;align=center;verticalAlign=middle;resizable=0;points=[];autosize=1;strokeColor=none;fillColor=none;" parent="1" vertex="1">
          <mxGeometry x="258.8200000000001" y="1845" width="60" height="30" as="geometry" />
        </mxCell>
        <mxCell id="Jp-t8RC92nulNdhPLHjl-188" style="edgeStyle=orthogonalEdgeStyle;rounded=0;orthogonalLoop=1;jettySize=auto;html=1;" parent="1" source="Jp-t8RC92nulNdhPLHjl-176" edge="1">
          <mxGeometry relative="1" as="geometry">
            <mxPoint x="560" y="1610" as="targetPoint" />
          </mxGeometry>
        </mxCell>
        <mxCell id="Jp-t8RC92nulNdhPLHjl-176" value="" style="verticalLabelPosition=bottom;html=1;verticalAlign=top;align=center;strokeColor=none;fillColor=#5378ce;shape=mxgraph.azure.worker_role;" parent="1" vertex="1">
          <mxGeometry x="412.73" y="1590" width="50" height="40" as="geometry" />
        </mxCell>
        <mxCell id="Jp-t8RC92nulNdhPLHjl-186" value="" style="group" parent="1" vertex="1" connectable="0">
          <mxGeometry x="570" y="1560.25" width="290" height="253" as="geometry" />
        </mxCell>
        <mxCell id="Jp-t8RC92nulNdhPLHjl-185" value="" style="rounded=0;whiteSpace=wrap;html=1;" parent="Jp-t8RC92nulNdhPLHjl-186" vertex="1">
          <mxGeometry width="290" height="253" as="geometry" />
        </mxCell>
        <mxCell id="Jp-t8RC92nulNdhPLHjl-168" value="" style="verticalLabelPosition=bottom;html=1;verticalAlign=top;align=center;strokeColor=none;fillColor=#5378ce;shape=mxgraph.azure.worker_role;" parent="Jp-t8RC92nulNdhPLHjl-186" vertex="1">
          <mxGeometry x="48.54040051808307" y="177" width="48.155159244130054" height="40" as="geometry" />
        </mxCell>
        <mxCell id="Jp-t8RC92nulNdhPLHjl-175" value="Nvidia Farm Service" style="text;html=1;align=center;verticalAlign=middle;resizable=0;points=[];autosize=1;strokeColor=none;fillColor=none;" parent="Jp-t8RC92nulNdhPLHjl-186" vertex="1">
          <mxGeometry y="24" width="130" height="30" as="geometry" />
        </mxCell>
        <mxCell id="Jp-t8RC92nulNdhPLHjl-178" value="" style="verticalLabelPosition=bottom;html=1;verticalAlign=top;align=center;strokeColor=none;fillColor=#5378ce;shape=mxgraph.azure.worker_role;" parent="Jp-t8RC92nulNdhPLHjl-186" vertex="1">
          <mxGeometry x="48.155159244130054" y="64" width="48.155159244130054" height="40" as="geometry" />
        </mxCell>
        <mxCell id="Jp-t8RC92nulNdhPLHjl-179" value="Nvidia Docker Service" style="text;html=1;align=center;verticalAlign=middle;resizable=0;points=[];autosize=1;strokeColor=none;fillColor=none;" parent="Jp-t8RC92nulNdhPLHjl-186" vertex="1">
          <mxGeometry x="5.2007571983660235" y="137" width="140" height="30" as="geometry" />
        </mxCell>
        <mxCell id="Jp-t8RC92nulNdhPLHjl-180" value="Siemens Convertor&lt;br&gt;Service" style="text;html=1;align=center;verticalAlign=middle;resizable=0;points=[];autosize=1;strokeColor=none;fillColor=none;" parent="Jp-t8RC92nulNdhPLHjl-186" vertex="1">
          <mxGeometry x="149.6662349307562" y="24" width="130" height="40" as="geometry" />
        </mxCell>
        <mxCell id="Jp-t8RC92nulNdhPLHjl-182" value="" style="verticalLabelPosition=bottom;html=1;verticalAlign=top;align=center;strokeColor=none;fillColor=#5378ce;shape=mxgraph.azure.worker_role;" parent="Jp-t8RC92nulNdhPLHjl-186" vertex="1">
          <mxGeometry x="184.0586496629139" y="64" width="48.155159244130054" height="40" as="geometry" />
        </mxCell>
        <mxCell id="Jp-t8RC92nulNdhPLHjl-183" value="" style="verticalLabelPosition=bottom;html=1;verticalAlign=top;align=center;strokeColor=none;fillColor=#5378ce;shape=mxgraph.azure.worker_role;" parent="Jp-t8RC92nulNdhPLHjl-186" vertex="1">
          <mxGeometry x="193.00587825047322" y="177" width="48.155159244130054" height="40" as="geometry" />
        </mxCell>
        <mxCell id="Jp-t8RC92nulNdhPLHjl-184" value="Other Services" style="text;html=1;align=center;verticalAlign=middle;resizable=0;points=[];autosize=1;strokeColor=none;fillColor=none;" parent="Jp-t8RC92nulNdhPLHjl-186" vertex="1">
          <mxGeometry x="168.9282986284082" y="137" width="100" height="30" as="geometry" />
        </mxCell>
        <mxCell id="Jp-t8RC92nulNdhPLHjl-187" value="Mesh Convertor Service" style="text;html=1;align=center;verticalAlign=middle;resizable=0;points=[];autosize=1;strokeColor=none;fillColor=none;" parent="1" vertex="1">
          <mxGeometry x="624.29" y="1520" width="150" height="30" as="geometry" />
        </mxCell>
        <mxCell id="Jp-t8RC92nulNdhPLHjl-192" value="Web Front End&amp;nbsp;&lt;br&gt;Service" style="text;html=1;align=center;verticalAlign=middle;resizable=0;points=[];autosize=1;strokeColor=none;fillColor=none;fontSize=20;" parent="1" vertex="1">
          <mxGeometry x="1531" y="170" width="160" height="60" as="geometry" />
        </mxCell>
        <mxCell id="Jp-t8RC92nulNdhPLHjl-193" value="Web FrontEnd" style="text;html=1;align=center;verticalAlign=middle;resizable=0;points=[];autosize=1;strokeColor=none;fillColor=none;" parent="1" vertex="1">
          <mxGeometry x="1580" y="370" width="100" height="30" as="geometry" />
        </mxCell>
        <mxCell id="Jp-t8RC92nulNdhPLHjl-195" value="" style="sketch=0;html=1;aspect=fixed;strokeColor=none;shadow=0;align=center;verticalAlign=top;fillColor=#3B8DF1;shape=mxgraph.gcp2.website;fontSize=10;" parent="1" vertex="1">
          <mxGeometry x="1580" y="305" width="41.23" height="40" as="geometry" />
        </mxCell>
        <mxCell id="Jp-t8RC92nulNdhPLHjl-212" value="" style="group" parent="1" vertex="1" connectable="0">
          <mxGeometry x="1930" y="130" width="330" height="400" as="geometry" />
        </mxCell>
        <mxCell id="Jp-t8RC92nulNdhPLHjl-211" value="" style="rounded=0;whiteSpace=wrap;html=1;" parent="Jp-t8RC92nulNdhPLHjl-212" vertex="1">
          <mxGeometry x="-2" y="-3" width="330" height="400" as="geometry" />
        </mxCell>
        <mxCell id="Jp-t8RC92nulNdhPLHjl-196" value="" style="aspect=fixed;perimeter=ellipsePerimeter;html=1;align=center;shadow=0;dashed=0;spacingTop=3;image;image=img/lib/active_directory/database_server.svg;fontSize=10;" parent="Jp-t8RC92nulNdhPLHjl-212" vertex="1">
          <mxGeometry x="218" y="26.5" width="49.199999999999996" height="59.99999999999999" as="geometry" />
        </mxCell>
        <mxCell id="Jp-t8RC92nulNdhPLHjl-197" value="User Database" style="text;html=1;align=center;verticalAlign=middle;resizable=0;points=[];autosize=1;strokeColor=none;fillColor=none;" parent="Jp-t8RC92nulNdhPLHjl-212" vertex="1">
          <mxGeometry x="188" y="89.5" width="100" height="30" as="geometry" />
        </mxCell>
        <mxCell id="Jp-t8RC92nulNdhPLHjl-198" value="" style="aspect=fixed;perimeter=ellipsePerimeter;html=1;align=center;shadow=0;dashed=0;spacingTop=3;image;image=img/lib/active_directory/database_server.svg;fontSize=10;" parent="Jp-t8RC92nulNdhPLHjl-212" vertex="1">
          <mxGeometry x="215.99999999999991" y="136" width="49.199999999999996" height="59.99999999999999" as="geometry" />
        </mxCell>
        <mxCell id="Jp-t8RC92nulNdhPLHjl-199" value="File Database" style="text;html=1;align=center;verticalAlign=middle;resizable=0;points=[];autosize=1;strokeColor=none;fillColor=none;" parent="Jp-t8RC92nulNdhPLHjl-212" vertex="1">
          <mxGeometry x="185.99999999999991" y="199" width="100" height="30" as="geometry" />
        </mxCell>
        <mxCell id="Jp-t8RC92nulNdhPLHjl-202" value="" style="aspect=fixed;perimeter=ellipsePerimeter;html=1;align=center;shadow=0;dashed=0;spacingTop=3;image;image=img/lib/active_directory/database_server.svg;fontSize=10;" parent="Jp-t8RC92nulNdhPLHjl-212" vertex="1">
          <mxGeometry x="230.4" y="251" width="49.199999999999996" height="59.99999999999999" as="geometry" />
        </mxCell>
        <mxCell id="Jp-t8RC92nulNdhPLHjl-203" value="Session Database" style="text;html=1;align=center;verticalAlign=middle;resizable=0;points=[];autosize=1;strokeColor=none;fillColor=none;" parent="Jp-t8RC92nulNdhPLHjl-212" vertex="1">
          <mxGeometry x="197.99999999999991" y="311" width="120" height="30" as="geometry" />
        </mxCell>
        <mxCell id="Jp-t8RC92nulNdhPLHjl-220" style="edgeStyle=orthogonalEdgeStyle;rounded=0;orthogonalLoop=1;jettySize=auto;html=1;" parent="Jp-t8RC92nulNdhPLHjl-212" source="Jp-t8RC92nulNdhPLHjl-206" edge="1">
          <mxGeometry relative="1" as="geometry">
            <mxPoint x="208.666748046875" y="73" as="targetPoint" />
          </mxGeometry>
        </mxCell>
        <mxCell id="Jp-t8RC92nulNdhPLHjl-206" value="" style="html=1;strokeColor=none;fillColor=#0079D6;labelPosition=center;verticalLabelPosition=middle;verticalAlign=top;align=center;fontSize=12;outlineConnect=0;spacingTop=-6;fontColor=#FFFFFF;sketch=0;shape=mxgraph.sitemap.login;" parent="Jp-t8RC92nulNdhPLHjl-212" vertex="1">
          <mxGeometry x="36" y="48" width="80" height="50" as="geometry" />
        </mxCell>
        <mxCell id="Jp-t8RC92nulNdhPLHjl-207" value="SSO" style="text;html=1;align=center;verticalAlign=middle;resizable=0;points=[];autosize=1;strokeColor=none;fillColor=none;" parent="Jp-t8RC92nulNdhPLHjl-212" vertex="1">
          <mxGeometry x="51" y="96" width="50" height="30" as="geometry" />
        </mxCell>
        <mxCell id="Jp-t8RC92nulNdhPLHjl-221" style="edgeStyle=orthogonalEdgeStyle;rounded=0;orthogonalLoop=1;jettySize=auto;html=1;" parent="Jp-t8RC92nulNdhPLHjl-212" source="Jp-t8RC92nulNdhPLHjl-200" edge="1">
          <mxGeometry relative="1" as="geometry">
            <mxPoint x="194.666748046875" y="172" as="targetPoint" />
          </mxGeometry>
        </mxCell>
        <mxCell id="Jp-t8RC92nulNdhPLHjl-200" value="" style="sketch=0;points=[[0,0,0],[0.25,0,0],[0.5,0,0],[0.75,0,0],[1,0,0],[0,1,0],[0.25,1,0],[0.5,1,0],[0.75,1,0],[1,1,0],[0,0.25,0],[0,0.5,0],[0,0.75,0],[1,0.25,0],[1,0.5,0],[1,0.75,0]];outlineConnect=0;fontColor=#232F3E;gradientColor=#4D72F3;gradientDirection=north;fillColor=#3334B9;strokeColor=#ffffff;dashed=0;verticalLabelPosition=bottom;verticalAlign=top;align=center;html=1;fontSize=12;fontStyle=0;aspect=fixed;shape=mxgraph.aws4.resourceIcon;resIcon=mxgraph.aws4.cloud_control_api;" parent="Jp-t8RC92nulNdhPLHjl-212" vertex="1">
          <mxGeometry x="53" y="147" width="50" height="50" as="geometry" />
        </mxCell>
        <mxCell id="Jp-t8RC92nulNdhPLHjl-201" value="File API" style="text;html=1;align=center;verticalAlign=middle;resizable=0;points=[];autosize=1;strokeColor=none;fillColor=none;" parent="Jp-t8RC92nulNdhPLHjl-212" vertex="1">
          <mxGeometry x="48" y="206.75" width="60" height="30" as="geometry" />
        </mxCell>
        <mxCell id="Jp-t8RC92nulNdhPLHjl-223" style="edgeStyle=orthogonalEdgeStyle;rounded=0;orthogonalLoop=1;jettySize=auto;html=1;" parent="Jp-t8RC92nulNdhPLHjl-212" source="Jp-t8RC92nulNdhPLHjl-204" edge="1">
          <mxGeometry relative="1" as="geometry">
            <mxPoint x="212.666748046875" y="283" as="targetPoint" />
          </mxGeometry>
        </mxCell>
        <mxCell id="Jp-t8RC92nulNdhPLHjl-204" value="" style="sketch=0;points=[[0,0,0],[0.25,0,0],[0.5,0,0],[0.75,0,0],[1,0,0],[0,1,0],[0.25,1,0],[0.5,1,0],[0.75,1,0],[1,1,0],[0,0.25,0],[0,0.5,0],[0,0.75,0],[1,0.25,0],[1,0.5,0],[1,0.75,0]];outlineConnect=0;fontColor=#232F3E;gradientColor=#4D72F3;gradientDirection=north;fillColor=#3334B9;strokeColor=#ffffff;dashed=0;verticalLabelPosition=bottom;verticalAlign=top;align=center;html=1;fontSize=12;fontStyle=0;aspect=fixed;shape=mxgraph.aws4.resourceIcon;resIcon=mxgraph.aws4.cloud_control_api;" parent="Jp-t8RC92nulNdhPLHjl-212" vertex="1">
          <mxGeometry x="55.32999999999993" y="258" width="50" height="50" as="geometry" />
        </mxCell>
        <mxCell id="Jp-t8RC92nulNdhPLHjl-205" value="Session API" style="text;html=1;align=center;verticalAlign=middle;resizable=0;points=[];autosize=1;strokeColor=none;fillColor=none;" parent="Jp-t8RC92nulNdhPLHjl-212" vertex="1">
          <mxGeometry x="33" y="316.5" width="90" height="30" as="geometry" />
        </mxCell>
        <mxCell id="Jp-t8RC92nulNdhPLHjl-7" value="" style="aspect=fixed;perimeter=ellipsePerimeter;html=1;align=center;shadow=0;dashed=0;spacingTop=3;image;image=img/lib/active_directory/database_server.svg;fontSize=10;" parent="1" vertex="1">
          <mxGeometry x="2144.9300000000003" y="934.75" width="49.199999999999996" height="59.99999999999999" as="geometry" />
        </mxCell>
        <mxCell id="Jp-t8RC92nulNdhPLHjl-58" value="" style="rounded=0;whiteSpace=wrap;html=1;fillColor=#dae8fc;strokeColor=#6c8ebf;" parent="1" vertex="1">
          <mxGeometry x="1864.5300000000002" y="959.75" width="110" height="140" as="geometry" />
        </mxCell>
        <mxCell id="Jp-t8RC92nulNdhPLHjl-61" value="Initiate &lt;br&gt;Conversion" style="text;html=1;align=center;verticalAlign=middle;resizable=0;points=[];autosize=1;strokeColor=none;fillColor=none;" parent="1" vertex="1">
          <mxGeometry x="1882.8644444444444" y="1054.75" width="80" height="40" as="geometry" />
        </mxCell>
        <mxCell id="Jp-t8RC92nulNdhPLHjl-63" value="" style="outlineConnect=0;dashed=0;verticalLabelPosition=bottom;verticalAlign=top;align=center;html=1;shape=mxgraph.aws3.worker;fillColor=#D9A741;gradientColor=none;" parent="1" vertex="1">
          <mxGeometry x="1892.5300000000002" y="992.75" width="52" height="57" as="geometry" />
        </mxCell>
        <mxCell id="Jp-t8RC92nulNdhPLHjl-65" value="" style="aspect=fixed;perimeter=ellipsePerimeter;html=1;align=center;shadow=0;dashed=0;spacingTop=3;image;image=img/lib/active_directory/sql_server.svg;" parent="1" vertex="1">
          <mxGeometry x="2304.9300000000003" y="979.75" width="38.5" height="50" as="geometry" />
        </mxCell>
        <mxCell id="Jp-t8RC92nulNdhPLHjl-66" value="" style="shape=image;html=1;verticalAlign=top;verticalLabelPosition=bottom;labelBackgroundColor=#ffffff;imageAspect=0;aspect=fixed;image=https://cdn4.iconfinder.com/data/icons/internet-security-flat-2/32/Internet_Security_lock_locked_password_secure_padlock-128.png;fontSize=10;" parent="1" vertex="1">
          <mxGeometry x="2004.9327272727273" y="962.02" width="32.72727272727273" height="32.72727272727273" as="geometry" />
        </mxCell>
        <mxCell id="Jp-t8RC92nulNdhPLHjl-77" value="User" style="text;html=1;align=center;verticalAlign=middle;resizable=0;points=[];autosize=1;strokeColor=none;fillColor=none;fontSize=12;" parent="1" vertex="1">
          <mxGeometry x="1733" y="1078.25" width="40" height="20" as="geometry" />
        </mxCell>
      </root>
    </mxGraphModel>
  </diagram>
</mxfile>
